Coordinates
version=1
nRows=10
nColumns=40
inDegrees=yes

Units are S.I. units (second, meters, Newtons, ...)
If the header above contains a line with 'inDegrees', this indicates whether rotational values are in degrees (yes) or radians (no).

endheader
time	pelvis_tilt	pelvis_list	pelvis_rotation	pelvis_tx	pelvis_ty	pelvis_tz	hip_flexion_r	hip_adduction_r	hip_rotation_r	knee_angle_r	knee_angle_r_beta	ankle_angle_r	subtalar_angle_r	mtp_angle_r	hip_flexion_l	hip_adduction_l	hip_rotation_l	knee_angle_l	knee_angle_l_beta	ankle_angle_l	subtalar_angle_l	mtp_angle_l	lumbar_extension	lumbar_bending	lumbar_rotation	arm_flex_r	arm_add_r	arm_rot_r	elbow_flex_r	pro_sup_r	wrist_flex_r	wrist_dev_r	arm_flex_l	arm_add_l	arm_rot_l	elbow_flex_l	pro_sup_l	wrist_flex_l	wrist_dev_l
      7.82500000	    -32.80804476	     -1.32725523	      3.46044075	     -0.39545898	      0.79147363	     -0.75746043	     74.62318903	     -1.55253213	     -9.14820947	     73.48255943	      1.28251260	     18.11623703	      0.00000000	      0.00000000	     43.51535442	     -5.24731083	      5.15406690	     92.29592848	      1.61086784	    -15.11664373	      0.00000000	      0.00000000	      1.72759509	      5.80179633	     -5.11104145	     89.96954359	     -3.46680780	      7.93887909	     59.10291615	     62.97166486	      0.00000000	      0.00000000	     89.94211270	     -8.17478041	      6.99649618	     49.37605599	     73.49134038	      0.00000000	      0.00000000
      7.83000000	    -32.72248099	     -1.28004252	      3.43085782	     -0.39514545	      0.79276254	     -0.75746996	     74.36785188	     -1.52337177	     -9.11156618	     73.22409507	      1.27800155	     17.98633201	      0.00000000	      0.00000000	     43.58022056	     -5.18404804	      5.04111490	     92.43125677	      1.61322976	    -15.12101281	      0.00000000	      0.00000000	      1.75287162	      5.75440216	     -4.97603823	     89.96937795	     -3.47901024	      7.96039865	     58.93165969	     62.99877137	      0.00000000	      0.00000000	     89.94175408	     -8.06818921	      7.05195747	     49.34302313	     73.52163585	      0.00000000	      0.00000000
      7.83500000	    -32.61190086	     -1.21809607	      3.42483408	     -0.39506387	      0.79415261	     -0.75739073	     74.11346628	     -1.50183658	     -9.03543692	     72.95337994	      1.27327668	     17.85466426	      0.00000000	      0.00000000	     43.68421324	     -5.15139250	      5.01598926	     92.61798429	      1.61648877	    -14.97933660	      0.00000000	      0.00000000	      1.73206457	      5.67394283	     -4.88174666	     89.96933843	     -3.55088568	      7.95010405	     58.80381507	     63.02747270	      0.00000000	      0.00000000	     89.94179646	     -7.99347585	      7.09182466	     49.30519258	     73.55212089	      0.00000000	      0.00000000
      7.84000000	    -32.48698458	     -1.20493980	      3.31831736	     -0.39483174	      0.79566634	     -0.75714150	     73.79389703	     -1.35839949	     -8.98458279	     72.56321114	      1.26646695	     17.63973739	      0.00000000	      0.00000000	     43.66588449	     -5.20877956	      4.86716706	     92.68357162	      1.61763349	    -14.68631163	      0.00000000	      0.00000000	      1.71065559	      5.64365731	     -4.70761332	     89.96926940	     -3.71495602	      8.06411487	     58.87271907	     63.12979469	      0.00000000	      0.00000000	     89.94157501	     -7.91872334	      7.14177994	     49.21098143	     73.62872972	      0.00000000	      0.00000000
      7.84500000	    -32.36994107	     -1.15410060	      3.29806574	     -0.39469337	      0.79689613	     -0.75718116	     73.55890207	     -1.36689351	     -8.96934827	     72.36946837	      1.26308550	     17.57472578	      0.00000000	      0.00000000	     43.74628433	     -5.15124262	      4.74272162	     92.90346034	      1.62147127	    -14.64731176	      0.00000000	      0.00000000	      1.70161620	      5.59408237	     -4.66540205	     89.96895993	     -3.74194377	      7.99816387	     58.86938596	     63.17379750	      0.00000000	      0.00000000	     89.94147505	     -7.90156465	      7.14891822	     49.20334123	     73.65863422	      0.00000000	      0.00000000
      7.85000000	    -32.26720334	     -1.09309729	      3.30079759	     -0.39457246	      0.79826236	     -0.75710517	     73.30968305	     -1.39199914	     -8.95850419	     72.11274733	      1.25860487	     17.49214770	      0.00000000	      0.00000000	     43.82784499	     -5.06991819	      4.66358585	     93.05965509	      1.62419738	    -14.63436834	      0.00000000	      0.00000000	      1.68924602	      5.51059330	     -4.59099947	     89.96899445	     -3.78498881	      8.07139910	     58.69889211	     63.21067913	      0.00000000	      0.00000000	     89.94135582	     -7.83517139	      7.16522707	     49.24157434	     73.68707262	      0.00000000	      0.00000000
      7.85500000	    -32.18026737	     -1.02668999	      3.30243787	     -0.39441043	      0.79965208	     -0.75710627	     73.05586431	     -1.41694235	     -8.94347181	     71.80560933	      1.25324430	     17.38128362	      0.00000000	      0.00000000	     43.90597494	     -4.99219360	      4.55205677	     93.17304655	      1.62617644	    -14.62288895	      0.00000000	      0.00000000	      1.71000149	      5.42478455	     -4.52427261	     89.96890071	     -3.86938037	      8.12048694	     58.59184823	     63.25324796	      0.00000000	      0.00000000	     89.94111661	     -7.76947457	      7.19335496	     49.21734425	     73.71675799	      0.00000000	      0.00000000
      7.86000000	    -32.08169401	     -0.96075597	      3.27515100	     -0.39418807	      0.80082888	     -0.75707766	     72.82396663	     -1.43037676	     -8.92359131	     71.60113496	      1.24967555	     17.30143863	      0.00000000	      0.00000000	     43.97789857	     -4.93013571	      4.43587958	     93.32921448	      1.62890208	    -14.60277105	      0.00000000	      0.00000000	      1.72455214	      5.35620126	     -4.44326960	     89.96873783	     -3.87776450	      8.12304051	     58.59644298	     63.28505367	      0.00000000	      0.00000000	     89.94093733	     -7.73637437	      7.21053108	     49.18507523	     73.73756831	      0.00000000	      0.00000000
      7.86500000	    -31.96935167	     -0.89435577	      3.26465016	     -0.39402405	      0.80225899	     -0.75704803	     72.54561056	     -1.43827577	     -8.88623181	     71.30373785	      1.24448499	     17.18773489	      0.00000000	      0.00000000	     44.03976531	     -4.83006885	      4.35438684	     93.45802771	      1.63115030	    -14.59476255	      0.00000000	      0.00000000	      1.68296712	      5.30117517	     -4.34803610	     89.96877071	     -3.92336015	      8.14234541	     58.53497481	     63.32165881	      0.00000000	      0.00000000	     89.94088642	     -7.69599248	      7.22768778	     49.20526526	     73.76608347	      0.00000000	      0.00000000
      7.87000000	    -31.84360543	     -0.84843260	      3.26030361	     -0.39407118	      0.80350159	     -0.75710850	     72.30181868	     -1.44152567	     -8.84852007	     71.06366923	      1.24029501	     17.07834107	      0.00000000	      0.00000000	     44.10186685	     -4.77511131	      4.26006872	     93.60875281	      1.63378095	    -14.60400223	      0.00000000	      0.00000000	      1.68947253	      5.21583126	     -4.35423704	     89.96840522	     -3.83027602	      8.20575839	     58.65389063	     63.41264830	      0.00000000	      0.00000000	     89.94082304	     -7.64199427	      7.25127690	     49.15129559	     73.78791660	      0.00000000	      0.00000000
